<?xml version="1.0" standalone="no"?>
<!DOCTYPE svg PUBLIC "-//W3C//DTD SVG 20010904//EN"
 "http://www.w3.org/TR/2001/REC-SVG-20010904/DTD/svg10.dtd">
<svg version="1.0" xmlns="http://www.w3.org/2000/svg"
 width="140.000000pt" height="640.000000pt" viewBox="0 0 140.000000 640.000000"
 preserveAspectRatio="xMidYMid meet">

<g transform="translate(0.000000,640.000000) scale(0.100000,-0.100000)"
fill="#000000" stroke="none">
<path d="M640 6389 c0 -7 -15 -10 -40 -7 -22 2 -40 1 -40 -2 0 -3 -21 -12 -47
-19 -52 -13 -176 -71 -181 -83 -2 -5 -8 -8 -13 -8 -19 0 -149 -123 -149 -141
0 -6 -4 -7 -10 -4 -5 3 -10 0 -10 -8 0 -7 -9 -23 -21 -36 -12 -12 -19 -25 -15
-28 3 -3 -1 -12 -9 -20 -8 -8 -18 -26 -21 -41 -4 -15 -13 -33 -22 -39 -13 -11
-13 -13 -1 -13 10 -1 10 -4 -4 -14 -10 -8 -27 -12 -37 -9 -19 5 -20 -1 -20
-196 0 -174 2 -201 15 -201 9 0 18 7 21 15 4 8 10 15 16 15 5 0 7 -4 4 -8 -3
-5 1 -20 9 -35 8 -15 12 -27 10 -27 -3 0 27 -60 81 -160 8 -14 17 -25 21 -24
10 1 37 -35 46 -59 4 -10 11 -15 17 -12 6 3 13 -1 16 -9 3 -9 10 -13 16 -10 5
3 12 -3 15 -14 3 -13 11 -18 19 -15 8 3 14 -1 14 -11 0 -9 6 -13 15 -10 8 4
17 -1 21 -10 3 -9 10 -13 15 -10 5 3 9 0 9 -6 0 -6 4 -9 9 -5 5 3 16 -1 24 -9
8 -8 17 -12 21 -9 3 4 6 1 6 -5 0 -6 7 -9 15 -6 8 4 15 1 15 -5 0 -6 7 -8 15
-5 8 4 15 1 15 -5 0 -6 7 -8 15 -5 8 4 15 1 15 -5 0 -7 9 -9 25 -5 14 3 25 2
25 -2 0 -5 52 -9 115 -9 63 0 115 4 115 9 0 4 11 5 25 2 16 -4 25 -2 25 5 0 6
7 9 15 5 8 -3 15 -1 15 5 0 6 7 9 15 5 8 -3 15 -1 15 5 0 6 7 9 15 5 8 -3 15
-1 15 5 0 6 5 7 10 4 6 -3 10 -2 10 3 0 10 56 37 64 31 3 -2 12 5 20 16 9 11
16 17 16 13 0 -4 11 4 25 18 14 14 29 23 33 20 12 -7 78 64 87 92 3 12 11 20
16 16 6 -3 13 3 16 15 3 12 9 21 14 21 5 0 9 6 9 14 0 8 7 21 15 30 9 8 14 19
13 23 -1 4 3 18 10 29 6 12 8 24 5 28 -3 3 1 6 10 6 10 0 14 5 11 15 -4 8 -1
15 6 15 10 0 10 3 0 15 -10 12 -9 15 6 16 11 1 27 1 37 0 16 -2 17 12 17 180
0 175 -1 181 -20 176 -10 -3 -27 1 -37 9 -14 10 -14 13 -4 14 11 0 9 4 -5 15
-11 8 -14 14 -6 15 8 0 5 8 -8 22 -12 13 -16 24 -11 26 8 3 8 10 0 23 -5 11
-14 17 -20 14 -5 -4 -10 0 -10 7 -1 7 -2 20 -3 28 0 8 -6 14 -12 13 -7 -1 -11
5 -10 15 0 9 -4 16 -10 15 -7 -1 -15 9 -18 22 -4 14 -10 24 -14 23 -4 -1 -30
20 -59 48 -29 27 -58 54 -66 60 -27 23 -182 93 -219 99 -21 4 -38 10 -38 14 0
4 -16 5 -35 3 -21 -3 -35 0 -35 7 0 7 -23 11 -60 11 -37 0 -60 -4 -60 -11z
m-79 -349 c15 -9 19 -20 17 -52 l-3 -41 175 -44 175 -44 17 21 c10 12 18 30
18 41 0 26 12 30 53 18 42 -11 41 -7 22 -79 -23 -85 -28 -76 62 -100 40 -10
41 -11 33 -40 -14 -47 -17 -49 -71 -33 -53 16 -68 10 -69 -25 0 -14 4 -16 69
-32 42 -11 43 -13 37 -43 -4 -17 -10 -35 -14 -38 -4 -4 -32 -1 -62 7 -30 8
-56 11 -58 7 -1 -5 -15 -31 -31 -59 -37 -63 -83 -89 -142 -79 -44 8 -99 48
-99 73 0 11 -9 6 -31 -16 -37 -38 -65 -47 -122 -38 -101 16 -142 71 -141 188
1 63 -2 79 -15 82 -9 3 -36 10 -59 16 -33 8 -42 15 -38 26 3 9 6 21 6 27 1 32
15 37 70 22 42 -11 56 -12 62 -2 14 22 9 47 -9 47 -10 0 -35 5 -57 11 -37 10
-38 12 -33 46 4 20 8 37 10 40 3 2 31 -3 63 -11 32 -8 59 -14 60 -13 1 1 9 34
19 74 18 78 19 78 86 43z m-501 -140 c0 -5 -4 -10 -10 -10 -5 0 -10 5 -10 10
0 6 5 10 10 10 6 0 10 -4 10 -10z m1307 -35 c8 -22 -6 -33 -17 -15 -13 20 -12
30 0 30 6 0 13 -7 17 -15z m-1327 -42 c-11 -17 -11 -17 -6 0 3 10 7 26 7 35 1
15 2 15 6 0 2 -10 -1 -25 -7 -35z m1338 -89 c3 -99 -7 -165 -26 -172 -10 -3
-11 4 -5 25 4 15 7 76 8 136 0 131 19 141 23 11z m-1331 -46 c-2 -18 -4 -4 -4
32 0 36 2 50 4 33 2 -18 2 -48 0 -65z m1 -94 c-3 -14 -5 -12 -10 9 -3 19 -2
25 4 19 6 -6 8 -18 6 -28z"/>
<path d="M521 5774 c-16 -61 -14 -126 5 -152 25 -35 81 -27 110 15 22 33 51
130 41 139 -3 3 -37 14 -75 24 l-70 18 -11 -44z"/>
<path d="M764 5749 c-9 -16 -17 -107 -10 -133 8 -31 40 -50 73 -42 17 5 31 22
49 59 38 82 35 91 -41 109 -36 8 -68 12 -71 7z"/>
<path d="M84 5012 c-6 -4 -14 -23 -18 -43 -7 -42 -35 -86 -36 -56 0 9 -7 17
-15 17 -13 0 -15 -31 -15 -220 0 -189 2 -220 15 -220 8 0 15 5 15 11 0 8 5 8
15 -1 8 -7 15 -23 15 -36 0 -13 4 -24 9 -24 5 0 15 -16 21 -35 6 -19 16 -35
21 -35 5 0 9 -7 9 -15 0 -8 9 -19 20 -25 11 -6 20 -16 20 -23 0 -17 54 -69 63
-60 4 3 7 1 7 -5 0 -14 108 -87 116 -79 4 3 13 -1 21 -9 9 -8 22 -13 29 -10 8
3 14 1 14 -5 0 -6 9 -8 20 -4 12 4 20 2 20 -5 0 -7 8 -9 20 -5 11 3 20 3 20
-2 0 -4 47 -8 105 -8 58 0 105 4 105 8 0 5 9 5 20 2 11 -4 20 -2 20 4 0 6 6 8
14 5 15 -6 64 16 109 50 48 35 99 120 101 165 0 23 4 41 8 41 5 0 8 18 8 40 0
22 -3 40 -8 40 -14 0 -10 79 4 84 8 3 14 0 14 -5 0 -6 9 -9 20 -6 11 3 20 1
20 -5 0 -6 9 -8 20 -5 11 3 20 1 20 -5 0 -6 9 -8 20 -5 11 3 20 1 20 -5 0 -6
11 -7 25 -4 16 4 25 2 25 -5 0 -6 9 -9 20 -6 11 3 20 1 20 -5 0 -6 9 -8 20 -5
11 3 20 1 20 -5 0 -6 9 -8 20 -5 11 3 20 1 20 -5 0 -6 9 -8 20 -5 11 3 20 1
20 -5 0 -5 12 -7 30 -3 17 4 31 5 32 3 1 -2 5 -84 8 -183 l6 -180 2 259 c2
254 2 258 -18 253 -13 -3 -20 0 -20 9 0 8 -5 14 -11 14 -6 0 -8 9 -4 20 10 32
-4 79 -23 78 -14 0 -114 22 -212 46 -8 2 -46 12 -85 21 -87 21 -107 25 -120
29 -5 1 -37 8 -70 15 -33 7 -71 16 -85 21 -14 5 -40 12 -58 15 -49 8 -149 32
-159 38 -4 3 -24 8 -43 11 -49 7 -157 33 -167 39 -4 3 -24 8 -43 11 -20 3 -65
12 -100 20 -74 18 -81 18 -96 8z m262 -308 c8 3 14 0 14 -5 0 -6 9 -9 20 -6
11 3 20 1 20 -5 0 -6 11 -8 24 -4 15 4 26 1 28 -6 2 -6 21 -12 41 -12 20 -1
37 -5 37 -10 0 -4 9 -6 20 -3 11 3 20 1 20 -5 0 -6 9 -8 20 -5 11 3 20 1 20
-5 0 -6 9 -8 20 -5 11 3 20 1 20 -5 0 -6 10 -8 21 -5 40 11 72 -44 73 -123 1
-92 -49 -128 -174 -124 -36 1 -76 4 -89 7 -45 12 -114 50 -147 84 -36 36 -74
109 -74 142 0 12 -4 21 -9 21 -11 0 -8 62 4 76 6 8 20 8 43 2 19 -5 40 -7 48
-4z m1019 -124 c3 -5 1 -10 -4 -10 -6 0 -11 5 -11 10 0 6 2 10 4 10 3 0 8 -4
11 -10z m10 -60 c3 -5 1 -10 -4 -10 -6 0 -11 5 -11 10 0 6 2 10 4 10 3 0 8 -4
11 -10z"/>
<path d="M0 3955 c0 -243 2 -295 14 -295 10 0 15 35 21 161 9 206 -2 429 -21
429 -12 0 -14 -51 -14 -295z"/>
<path d="M50 3965 c0 -124 2 -137 17 -131 9 4 20 2 23 -5 4 -6 23 -11 41 -12
19 -1 37 -6 41 -11 3 -5 22 -10 42 -10 20 -1 36 -5 36 -10 0 -4 9 -6 20 -3 11
3 20 1 20 -5 0 -6 11 -7 25 -4 16 4 25 2 25 -5 0 -6 9 -9 20 -6 11 3 20 1 20
-5 0 -6 9 -8 20 -5 11 3 20 1 20 -5 0 -6 9 -8 20 -5 11 3 20 1 20 -5 0 -6 9
-8 20 -5 11 3 20 1 20 -5 0 -6 9 -8 20 -5 11 3 20 1 20 -5 0 -6 11 -7 25 -4
16 4 25 2 25 -5 0 -6 9 -9 20 -6 11 3 20 1 20 -5 0 -6 9 -8 20 -5 11 3 20 1
20 -5 0 -6 9 -8 20 -5 11 3 20 1 20 -5 0 -6 9 -8 20 -5 11 3 20 1 20 -5 0 -6
11 -7 25 -4 16 4 25 2 25 -5 0 -6 9 -9 20 -6 11 3 20 1 20 -5 0 -6 9 -8 20 -5
10 3 20 1 22 -4 2 -5 20 -12 41 -16 l37 -6 0 135 0 134 -77 17 c-43 9 -85 19
-93 22 -8 2 -46 11 -85 20 -38 9 -78 18 -87 21 -10 2 -28 6 -40 9 -83 17 -126
28 -148 36 -14 4 -40 11 -58 14 -28 5 -105 22 -177 41 -11 3 -31 7 -45 10 -23
4 -40 9 -82 20 -17 5 -18 -6 -18 -131z"/>
<path d="M1123 3855 c-17 -7 -40 -26 -50 -41 -18 -28 -35 -144 -21 -144 4 0 8
-9 8 -20 0 -11 5 -20 10 -20 6 0 10 -7 10 -15 0 -8 19 -28 42 -45 33 -24 51
-30 95 -30 30 0 53 4 53 11 0 5 5 7 10 4 6 -3 10 -2 10 3 0 5 11 7 25 4 22 -4
25 -1 25 22 0 37 19 64 42 58 16 -4 18 2 18 48 0 47 -2 52 -20 47 -14 -4 -23
3 -35 26 -8 16 -15 36 -15 44 0 7 -7 13 -15 13 -8 0 -31 9 -52 20 -50 26 -101
31 -140 15z m239 -177 c-9 -9 -12 -7 -12 12 0 19 3 21 12 12 9 -9 9 -15 0 -24z"/>
<path d="M189 3592 c-42 -12 -119 -70 -119 -89 0 -6 -9 -20 -20 -33 -16 -18
-20 -20 -20 -7 0 10 -7 17 -15 17 -13 0 -15 -27 -15 -185 0 -154 2 -185 14
-185 8 0 16 8 19 18 3 12 8 7 20 -20 9 -20 14 -44 11 -52 -4 -11 -1 -16 10
-16 9 0 16 4 16 9 0 4 22 6 50 3 32 -3 50 -1 50 6 0 7 17 9 51 5 47 -6 51 -5
46 13 -3 10 -9 33 -13 49 -4 17 -10 32 -14 35 -3 3 -4 35 0 73 4 55 10 71 30
90 25 22 90 33 90 14 0 -5 11 -7 25 -5 14 3 25 1 25 -5 0 -5 9 -7 20 -4 11 3
20 1 20 -5 0 -6 9 -8 20 -5 11 3 20 1 20 -5 0 -6 11 -7 25 -4 16 4 25 2 25 -5
0 -6 9 -9 20 -6 11 3 20 1 20 -5 0 -6 9 -8 20 -5 10 3 21 0 23 -6 2 -6 20 -11
40 -11 48 -1 50 -8 45 -171 l-3 -126 23 4 c12 2 22 0 22 -6 0 -5 9 -7 20 -4
11 3 20 1 20 -5 0 -6 9 -8 20 -5 11 3 20 1 20 -5 0 -6 9 -8 20 -5 10 3 20 1
22 -4 2 -5 18 -11 36 -15 l32 -6 0 148 c0 87 4 143 9 135 5 -8 16 -11 30 -6
13 4 21 2 21 -5 0 -7 8 -9 20 -5 12 4 20 2 20 -5 0 -7 8 -9 20 -5 12 4 20 2
20 -5 0 -7 8 -10 20 -7 11 3 20 1 20 -5 0 -6 9 -8 20 -5 11 3 20 1 20 -4 0 -5
9 -9 20 -9 15 0 20 7 20 25 0 14 -3 25 -7 25 -5 0 -9 28 -10 62 -1 35 -6 64
-12 66 -6 2 -8 16 -4 33 3 19 1 29 -6 29 -8 0 -10 8 -6 19 5 15 -1 20 -27 24
-18 3 -44 8 -58 12 -14 4 -45 11 -70 16 -25 5 -58 14 -75 19 -16 5 -45 12 -63
15 -30 5 -126 27 -177 41 -11 3 -47 11 -80 18 -33 7 -65 15 -70 18 -6 4 -30 9
-55 13 -25 4 -48 9 -51 11 -29 17 -206 22 -260 6z"/>
<path d="M257 2925 c-38 -13 -78 -32 -90 -42 -49 -42 -97 -96 -97 -109 0 -8
-4 -14 -9 -14 -5 0 -12 -12 -17 -27 -5 -21 -8 -24 -11 -10 -3 9 -11 17 -19 17
-12 0 -14 -32 -14 -190 0 -162 2 -190 15 -190 8 0 15 7 15 15 0 32 18 13 31
-32 7 -26 14 -42 16 -36 3 8 23 10 59 6 36 -4 54 -2 54 5 0 7 17 9 50 5 34 -4
50 -2 50 5 0 19 -24 107 -31 112 -3 3 -2 40 2 83 8 85 20 107 70 127 16 7 29
15 29 19 0 3 36 6 80 6 44 0 80 -4 80 -9 0 -4 9 -6 20 -3 11 3 20 1 20 -3 0
-5 10 -12 23 -16 12 -3 34 -15 50 -26 15 -11 27 -17 27 -14 0 3 9 -2 20 -11
11 -10 20 -23 20 -30 0 -7 4 -13 10 -13 13 0 40 -95 40 -141 0 -20 -9 -67 -21
-104 -11 -37 -18 -69 -15 -73 3 -3 6 1 6 9 0 10 2 11 8 2 10 -16 142 -74 153
-67 5 3 9 1 9 -5 0 -6 8 -7 22 -2 36 13 61 98 66 224 3 75 1 107 -7 107 -7 0
-9 9 -5 24 3 15 -6 51 -27 102 -36 87 -115 176 -204 233 -130 83 -342 112
-478 66z"/>
<path d="M268 2174 c-86 -22 -185 -97 -203 -153 -7 -24 -35 -49 -35 -32 0 6
-7 11 -15 11 -13 0 -15 -26 -15 -170 0 -144 2 -170 15 -170 8 0 15 5 15 11 0
23 29 -13 46 -56 9 -24 22 -46 30 -49 8 -3 14 -11 14 -17 0 -7 27 -38 60 -70
64 -62 197 -136 224 -126 9 4 16 1 16 -4 0 -6 9 -9 20 -6 11 3 20 0 20 -5 0
-7 14 -8 35 -5 19 3 35 2 35 -4 0 -5 29 -9 65 -9 37 0 65 4 65 10 0 6 11 8 25
4 28 -7 115 21 115 37 0 6 4 8 9 5 10 -7 73 40 101 76 31 40 61 114 54 132 -4
9 -1 16 6 16 9 0 11 26 8 103 -3 92 -7 109 -38 172 -66 133 -225 257 -372 291
-10 2 -28 7 -40 10 -43 12 -213 11 -260 -2z m232 -258 c0 -4 9 -6 20 -3 11 3
20 2 20 -2 0 -10 61 -31 71 -25 5 3 9 1 9 -4 0 -6 21 -23 46 -39 30 -19 52
-42 65 -70 20 -45 26 -103 9 -103 -5 0 -10 -8 -10 -18 0 -11 -16 -27 -38 -40
-33 -18 -52 -21 -133 -18 -175 5 -285 82 -296 205 -5 54 -4 61 23 88 16 16 37
27 47 25 9 -2 17 0 17 5 0 4 34 8 75 8 41 0 75 -4 75 -9z"/>
<path d="M0 730 c0 -642 2 -730 15 -730 19 0 18 -23 21 650 3 627 -2 810 -22
810 -12 0 -14 -114 -14 -730z"/>
<path d="M50 1192 c0 -70 4 -133 9 -141 5 -8 16 -11 30 -6 13 4 21 2 21 -5 0
-7 8 -10 20 -7 11 3 20 1 20 -5 0 -6 9 -8 20 -5 11 3 20 1 20 -5 0 -6 9 -8 20
-5 11 3 20 1 20 -5 0 -6 9 -8 20 -5 11 3 20 1 20 -5 0 -6 11 -8 24 -4 14 3 26
1 28 -5 2 -6 19 -11 38 -12 19 -1 38 -6 42 -11 3 -5 22 -10 42 -10 20 -1 36
-5 36 -10 0 -4 9 -6 20 -3 11 3 20 1 20 -5 0 -6 11 -7 25 -4 16 4 25 2 25 -5
0 -6 9 -9 20 -6 11 3 20 1 20 -5 0 -6 9 -8 20 -5 11 3 20 1 20 -5 0 -6 9 -8
20 -5 11 3 20 1 20 -5 0 -6 9 -8 20 -5 11 3 20 1 20 -5 0 -6 11 -7 25 -4 16 4
25 2 25 -5 0 -6 9 -9 20 -6 11 3 20 1 20 -5 0 -6 9 -8 20 -5 11 3 20 2 20 -3
0 -12 47 -21 75 -14 l26 6 -3 126 c-3 117 -4 125 -23 128 -19 3 -132 30 -165
39 -8 2 -46 11 -85 20 -38 9 -78 18 -87 21 -10 2 -28 6 -40 9 -83 17 -126 28
-148 36 -14 4 -40 11 -58 14 -28 5 -112 24 -177 41 -11 3 -33 8 -49 10 -16 3
-40 10 -53 15 l-23 9 0 -128z"/>
<path d="M1129 1072 c-32 -15 -69 -50 -69 -66 0 -9 -4 -16 -8 -16 -9 0 1 -105
13 -135 15 -37 85 -97 106 -92 10 3 19 1 19 -4 0 -5 14 -9 30 -9 17 0 30 4 30
9 0 5 8 7 18 4 20 -5 92 66 92 91 0 9 7 12 20 9 18 -5 20 0 20 42 0 40 -3 47
-18 43 -12 -4 -25 7 -42 34 -34 54 -87 88 -146 93 -27 3 -56 1 -65 -3z m241
-167 c0 -8 -4 -17 -10 -20 -6 -4 -10 5 -10 20 0 15 4 24 10 20 6 -3 10 -12 10
-20z"/>
<path d="M50 748 c0 -127 7 -155 34 -145 9 4 16 2 16 -4 0 -7 10 -9 25 -5 16
4 25 2 25 -5 0 -6 9 -9 20 -6 11 3 20 1 20 -5 0 -6 9 -8 20 -5 11 3 20 1 20
-5 0 -6 9 -8 20 -5 11 3 20 1 20 -5 0 -6 9 -8 20 -5 11 3 20 1 20 -5 0 -6 11
-7 25 -4 16 4 25 2 25 -5 0 -6 9 -9 20 -6 11 3 20 1 20 -5 0 -6 9 -8 20 -5 11
3 20 1 20 -5 0 -6 9 -8 20 -5 11 3 20 1 20 -5 0 -6 9 -8 20 -5 11 3 20 1 20
-5 0 -6 11 -7 25 -4 16 4 25 2 25 -5 0 -6 9 -9 20 -6 11 3 20 1 20 -5 0 -6 9
-8 20 -5 11 3 20 1 20 -5 0 -6 9 -8 20 -5 11 3 20 1 20 -4 0 -5 11 -9 24 -9
21 0 25 -6 31 -45 9 -60 -2 -103 -32 -131 -22 -20 -32 -22 -94 -19 -38 2 -73
6 -78 9 -4 3 -22 8 -40 11 -26 4 -128 28 -166 39 -5 1 -37 8 -70 15 -33 7 -71
16 -85 21 -14 5 -41 12 -60 15 -19 3 -43 8 -53 11 -16 5 -17 -6 -17 -130 0
-135 0 -136 24 -142 14 -3 30 -3 35 1 6 3 11 1 11 -6 0 -6 8 -9 20 -6 11 3 20
1 20 -5 0 -6 11 -7 25 -4 16 4 25 2 25 -5 0 -6 9 -9 20 -6 11 3 20 1 20 -5 0
-6 9 -8 20 -5 11 3 20 1 20 -5 0 -6 9 -8 20 -5 11 3 20 1 20 -5 0 -6 9 -8 20
-5 11 3 20 1 20 -5 0 -6 9 -8 20 -5 11 3 20 1 20 -5 0 -6 11 -7 25 -4 16 4 25
2 25 -5 0 -6 9 -9 20 -6 11 3 20 1 20 -3 0 -5 71 -9 158 -9 l158 -2 42 31 c63
46 122 153 106 193 -3 10 -1 17 5 17 7 0 11 30 11 85 0 47 -3 85 -7 85 -5 0
-8 24 -9 53 0 50 -41 207 -53 207 -6 1 -162 37 -193 45 -28 8 -61 16 -86 21
-21 4 -159 38 -204 49 -33 9 -63 16 -86 21 -62 13 -182 43 -190 48 -5 3 -29 8
-55 11 l-47 7 0 -124z"/>
</g>
</svg>
