<?xml version="1.0" standalone="no"?>
<!DOCTYPE svg PUBLIC "-//W3C//DTD SVG 20010904//EN"
 "http://www.w3.org/TR/2001/REC-SVG-20010904/DTD/svg10.dtd">
<svg version="1.0" xmlns="http://www.w3.org/2000/svg"
 width="140.000000pt" height="640.000000pt" viewBox="0 0 140.000000 640.000000"
 preserveAspectRatio="xMidYMid meet">

<g transform="translate(0.000000,640.000000) scale(0.100000,-0.100000)"
fill="#000000" stroke="none">
<path d="M553 6370 c-50 -29 -99 -81 -86 -94 3 -3 2 -6 -4 -6 -12 0 -22 -34
-30 -105 -8 -63 -8 -83 1 -175 3 -41 6 -85 6 -97 0 -12 5 -25 10 -28 6 -4 8
-11 5 -16 -4 -5 -3 -15 2 -21 4 -7 8 -17 8 -23 1 -5 5 -26 9 -46 6 -30 13 -38
38 -43 17 -3 34 -3 39 0 5 3 9 0 9 -7 0 -6 8 -9 20 -6 11 3 20 1 20 -5 0 -6
11 -7 26 -4 18 5 24 3 18 -5 -5 -9 1 -10 20 -5 20 5 26 4 20 -5 -5 -9 0 -10
20 -5 17 4 26 2 26 -5 0 -6 9 -9 20 -6 11 3 20 1 20 -5 0 -6 9 -8 20 -5 11 3
20 1 20 -5 0 -6 9 -8 20 -5 11 3 20 1 20 -5 0 -6 9 -8 20 -5 11 3 20 1 20 -5
0 -6 11 -7 26 -4 18 5 24 3 18 -5 -5 -9 1 -10 20 -5 20 5 26 4 20 -5 -5 -9 0
-10 20 -5 17 4 26 2 26 -5 0 -6 9 -9 20 -6 11 3 20 1 20 -5 0 -6 9 -8 20 -5
11 3 20 1 20 -5 0 -6 9 -8 20 -5 11 3 20 1 20 -5 0 -6 9 -8 20 -5 11 3 20 1
20 -5 0 -6 11 -7 26 -4 19 5 24 3 18 -5 -5 -9 -1 -10 14 -7 12 4 22 2 22 -4 0
-6 11 -8 24 -4 14 3 26 1 28 -5 2 -5 11 -7 21 -3 16 6 17 20 15 132 l-3 127
-60 13 c-33 7 -67 15 -75 19 -8 4 -22 7 -30 8 -38 5 -176 38 -185 45 -5 4 -17
7 -25 7 -28 0 -175 36 -188 46 -7 5 -15 7 -18 5 -3 -3 -26 0 -52 6 -37 10 -47
17 -47 33 0 12 -3 25 -7 29 -12 11 -10 72 2 79 6 4 8 11 4 16 -7 12 31 51 40
42 3 -4 6 -2 6 3 0 5 23 9 50 9 28 0 50 -4 50 -9 0 -4 11 -6 25 -4 14 3 25 1
25 -5 0 -5 11 -7 25 -5 14 3 25 1 25 -5 0 -5 9 -7 20 -4 11 3 20 1 20 -5 0 -6
9 -8 20 -5 11 3 20 1 20 -5 0 -6 11 -7 26 -4 18 5 24 3 18 -5 -5 -9 0 -10 19
-5 14 3 27 2 29 -5 2 -5 20 -11 41 -12 20 -1 37 -6 37 -11 0 -4 12 -5 26 -2
19 5 24 3 18 -5 -5 -9 -1 -10 14 -7 12 4 22 2 22 -4 0 -6 11 -8 25 -6 14 3 25
1 25 -5 0 -5 9 -7 20 -4 11 3 20 1 20 -4 0 -5 5 -9 10 -9 6 0 10 51 10 134 0
120 -2 135 -17 140 -10 2 -54 12 -98 22 -44 9 -84 20 -90 24 -5 3 -19 7 -30 8
-11 0 -78 15 -148 31 -105 26 -149 31 -245 31 -111 0 -120 -2 -169 -30z"/>
<path d="M1360 6150 c0 -133 1 -140 20 -140 19 0 20 7 20 140 0 133 -1 140
-20 140 -19 0 -20 -7 -20 -140z"/>
<path d="M1359 5796 c-2 -2 -3 -68 -1 -145 3 -132 4 -141 23 -141 18 0 19 8
19 145 0 134 -1 145 -18 145 -10 0 -21 -2 -23 -4z"/>
<path d="M134 5632 c-28 -10 -69 -43 -83 -70 -6 -12 -21 -22 -31 -22 -17 0
-20 -7 -20 -40 0 -32 4 -40 19 -40 21 0 45 -23 34 -33 -3 -4 -1 -7 5 -7 7 0
11 -3 10 -7 -6 -19 95 -98 112 -88 6 3 10 1 10 -4 0 -6 16 -11 35 -11 19 0 35
5 35 11 0 5 4 8 9 5 12 -8 71 51 71 70 0 8 3 14 8 14 6 0 7 93 1 110 -1 3 -1
8 0 13 0 4 -4 7 -9 7 -6 0 -9 4 -8 8 5 14 -69 73 -104 83 -36 10 -63 10 -94 1z
m-87 -149 c-3 -10 -5 -2 -5 17 0 19 2 27 5 18 2 -10 2 -26 0 -35z"/>
<path d="M440 5425 c0 -104 2 -125 15 -125 8 0 15 -5 15 -11 0 -6 9 -9 20 -6
11 3 20 1 20 -5 0 -6 9 -8 20 -5 11 3 20 1 20 -5 0 -6 11 -7 26 -4 18 5 24 3
18 -5 -5 -9 0 -10 19 -5 14 3 27 2 29 -5 2 -5 20 -11 41 -12 20 -1 37 -6 37
-11 0 -4 9 -6 20 -3 11 3 20 1 20 -5 0 -6 11 -7 26 -4 18 5 24 3 18 -5 -5 -9
0 -10 20 -5 17 4 26 2 26 -5 0 -6 9 -9 20 -6 11 3 20 1 20 -5 0 -6 9 -8 20 -5
11 3 20 1 20 -5 0 -6 11 -7 26 -4 19 5 24 3 18 -5 -5 -9 -1 -10 14 -7 12 4 22
2 22 -4 0 -6 11 -8 25 -6 14 3 25 1 25 -5 0 -5 9 -7 20 -4 11 3 20 1 20 -5 0
-6 9 -8 20 -5 11 3 20 1 20 -5 0 -6 11 -7 26 -4 18 5 24 3 18 -5 -5 -9 0 -10
20 -5 17 4 26 2 26 -5 0 -6 9 -9 20 -6 11 3 20 1 20 -5 0 -6 9 -8 20 -5 11 3
20 1 20 -4 0 -5 9 -9 20 -9 20 0 20 5 18 132 l-3 132 -40 8 c-22 5 -47 11 -55
15 -8 3 -24 8 -35 9 -11 1 -94 20 -185 42 -91 22 -181 43 -200 47 -19 4 -39
11 -45 15 -5 4 -17 7 -25 7 -27 0 -215 45 -224 54 -6 5 -29 9 -53 9 l-43 0 0
-125z"/>
<path d="M1360 5215 c0 -138 1 -145 20 -145 19 0 20 7 20 145 0 138 -1 145
-20 145 -19 0 -20 -7 -20 -145z"/>
<path d="M698 5060 c-26 -5 -73 -21 -103 -37 -53 -26 -115 -81 -115 -102 0 -5
-4 -11 -9 -13 -5 -1 -11 -10 -13 -18 -2 -8 -6 -17 -10 -20 -12 -9 -21 -79 -21
-155 0 -60 7 -130 13 -130 1 0 4 -11 6 -25 3 -14 9 -27 14 -28 6 -2 8 -8 4
-13 -3 -5 0 -9 5 -9 6 0 10 -4 9 -8 -4 -13 31 -59 89 -116 59 -58 80 -76 87
-76 3 0 26 -13 52 -30 26 -16 51 -27 55 -24 5 3 9 0 9 -6 0 -7 7 -10 15 -6 8
3 15 1 15 -5 0 -6 9 -8 20 -4 12 4 20 2 20 -5 0 -7 8 -9 20 -5 12 4 20 2 20
-5 0 -8 11 -10 35 -6 22 4 35 3 35 -4 0 -5 22 -10 50 -10 29 0 50 5 50 11 0 6
11 8 28 4 16 -3 42 0 58 6 16 7 32 12 35 11 14 -2 134 86 131 97 -1 6 5 14 13
17 8 4 15 12 15 20 0 8 4 14 10 14 5 0 9 3 9 8 -4 22 3 29 26 24 l25 -4 0 162
0 162 -25 -4 c-23 -5 -30 2 -26 25 0 4 -4 7 -10 7 -5 0 -7 5 -4 10 3 6 1 10
-5 10 -6 0 -8 5 -5 10 3 6 1 10 -4 10 -6 0 -11 6 -11 14 0 8 -7 16 -15 20 -8
3 -14 9 -13 13 5 16 -112 120 -166 147 -122 62 -290 88 -418 66z m212 -264 c0
-4 9 -6 20 -3 11 3 20 1 20 -4 0 -6 6 -9 13 -8 24 4 92 -34 130 -72 22 -21 36
-39 33 -39 -4 0 -1 -10 6 -22 7 -13 12 -25 11 -28 -1 -3 -3 -25 -4 -50 -3 -32
-10 -51 -28 -67 -13 -13 -24 -23 -25 -23 -1 0 -39 -3 -86 -6 -98 -7 -175 13
-253 66 -44 29 -76 60 -63 60 4 0 0 7 -8 16 -9 8 -14 19 -11 24 3 5 1 11 -5
15 -14 9 -13 75 2 75 6 0 8 3 5 6 -14 14 15 43 48 50 19 3 33 9 31 13 -2 3 34
6 80 6 46 0 84 -4 84 -9z"/>
<path d="M473 4222 c-7 -4 -14 -17 -16 -27 -1 -11 -6 -25 -10 -31 -25 -40 -27
-232 -3 -329 2 -11 5 -20 6 -20 1 0 4 -11 6 -25 3 -14 9 -27 14 -28 6 -2 8 -8
4 -13 -3 -5 0 -9 6 -9 6 0 8 -4 5 -10 -3 -5 -1 -10 4 -10 6 0 11 -7 11 -15 0
-8 5 -15 10 -15 6 0 10 -5 10 -12 0 -33 208 -196 232 -182 4 3 8 0 8 -6 0 -7
7 -10 15 -6 8 3 15 1 15 -5 0 -6 7 -9 15 -5 8 3 15 0 15 -5 0 -6 9 -9 20 -6
11 3 20 0 20 -5 0 -7 14 -8 35 -5 19 3 35 2 35 -4 0 -5 25 -9 55 -9 32 0 55 4
55 10 0 7 13 8 35 4 19 -3 35 -2 35 2 0 5 12 10 26 11 15 0 30 6 34 13 4 6 11
12 16 12 17 1 54 21 54 30 0 4 7 8 15 8 8 0 15 6 15 14 0 8 11 23 25 34 14 11
25 25 25 31 0 6 5 11 11 11 5 0 7 5 4 10 -3 6 -1 10 6 10 7 0 9 3 6 7 -12 11
13 31 33 26 19 -5 20 1 20 176 0 186 -4 203 -39 169 -7 -7 -12 -8 -11 -3 2 6
1 13 0 18 -1 4 -3 10 -5 15 -9 33 -18 38 -58 36 -167 -11 -187 -15 -166 -40 6
-8 9 -14 6 -14 -3 0 -1 -15 4 -32 16 -54 13 -161 -5 -200 -25 -53 -78 -78
-165 -78 -38 0 -91 7 -117 16 -50 17 -139 75 -133 86 2 4 -5 14 -16 22 -11 9
-15 16 -10 16 6 0 4 4 -3 9 -7 4 -14 20 -16 34 -1 15 -6 30 -9 34 -11 10 -8
101 3 108 6 4 8 11 4 16 -3 5 0 16 6 24 7 8 10 15 6 15 -3 0 -1 11 4 24 8 22
4 26 -69 59 -90 42 -121 50 -138 39z"/>
<path d="M445 3459 c-3 -8 -6 -71 -7 -140 l-3 -127 -115 29 c-138 34 -144 34
-135 12 4 -10 9 -31 11 -48 3 -31 10 -78 20 -130 3 -16 5 -43 5 -59 0 -26 2
-28 30 -22 21 4 28 2 23 -6 -5 -7 1 -9 19 -4 14 3 27 2 29 -5 2 -5 20 -11 41
-12 20 -1 37 -6 37 -11 0 -4 9 -6 20 -3 11 3 20 1 20 -5 0 -6 9 -8 20 -5 11 3
20 1 20 -5 0 -6 11 -7 25 -4 16 4 25 2 25 -5 0 -6 9 -9 20 -6 11 3 20 1 20 -5
0 -6 9 -8 20 -5 11 3 20 1 20 -5 0 -6 11 -7 26 -4 18 5 24 3 18 -5 -5 -9 0
-10 19 -5 14 3 27 2 29 -5 2 -5 20 -11 41 -12 20 -1 37 -6 37 -11 0 -4 12 -5
26 -2 19 5 24 3 18 -5 -5 -9 -1 -10 14 -7 12 4 22 2 22 -4 0 -6 11 -8 25 -6
14 3 25 1 25 -5 0 -5 9 -7 20 -4 11 3 20 0 20 -5 0 -6 12 -8 30 -4 17 3 30 2
30 -2 0 -4 43 -8 95 -7 52 0 95 4 95 8 0 5 5 5 10 2 16 -10 135 86 123 99 -4
3 -1 6 6 6 7 0 9 5 6 10 -6 10 6 14 38 11 16 -2 17 12 17 173 0 181 -4 198
-39 164 -7 -7 -11 -8 -10 -3 1 6 -3 23 -9 38 -7 16 -12 32 -12 37 0 4 -24 6
-52 3 -29 -2 -69 -6 -88 -8 -19 -1 -43 -3 -52 -4 -19 -1 -25 -36 -8 -46 6 -4
8 -11 5 -16 -4 -5 -3 -14 1 -21 9 -15 9 -122 -1 -137 -3 -6 -3 -11 1 -11 4 0
-5 -11 -20 -24 -37 -31 -72 -29 -298 26 l-138 33 0 140 0 141 -65 13 c-36 7
-67 17 -70 21 -3 5 -13 8 -23 8 -9 0 -29 3 -44 7 -20 5 -29 3 -33 -6z"/>
<path d="M131 2846 c-13 -7 -32 -11 -43 -8 -14 3 -18 -1 -18 -22 0 -14 -5 -26
-12 -26 -6 0 -8 -3 -5 -7 11 -10 -13 -33 -34 -33 -15 0 -19 -8 -19 -40 0 -33
3 -40 20 -40 12 0 25 -10 32 -25 6 -14 15 -25 20 -25 5 0 6 -9 3 -20 -5 -15
-2 -20 13 -20 11 0 31 -9 44 -20 14 -10 28 -16 32 -13 3 3 6 1 6 -5 0 -8 19
-11 60 -8 61 3 100 24 100 53 0 7 4 13 10 13 5 0 9 3 9 8 -1 4 -1 9 0 12 6 17
5 110 -1 110 -5 0 -8 9 -8 20 0 11 -5 20 -11 20 -5 0 -8 4 -5 9 8 12 -22 37
-74 60 -52 24 -85 26 -119 7z m-84 -153 c-3 -10 -5 -2 -5 17 0 19 2 27 5 18 2
-10 2 -26 0 -35z"/>
<path d="M440 2648 c0 -128 7 -155 34 -145 9 4 16 1 16 -4 0 -6 9 -9 20 -6 11
3 20 1 20 -5 0 -6 11 -7 26 -4 18 5 24 3 18 -5 -5 -9 0 -10 19 -5 14 3 27 2
29 -5 2 -5 20 -11 41 -12 20 -1 37 -6 37 -11 0 -4 9 -6 20 -3 11 3 20 1 20 -5
0 -6 11 -7 26 -4 18 5 24 3 18 -5 -5 -9 0 -10 20 -5 17 4 26 2 26 -5 0 -6 9
-9 20 -6 11 3 20 1 20 -5 0 -6 9 -8 20 -5 11 3 20 1 20 -5 0 -6 11 -7 26 -4
19 5 24 3 18 -5 -5 -9 -1 -10 14 -7 12 4 22 2 22 -4 0 -6 11 -8 25 -6 14 3 25
1 25 -5 0 -5 9 -7 20 -4 11 3 20 1 20 -5 0 -6 9 -8 20 -5 11 3 20 1 20 -5 0
-6 11 -7 26 -4 18 5 24 3 18 -5 -5 -9 0 -10 20 -5 17 4 26 2 26 -5 0 -6 9 -9
20 -6 11 3 20 1 20 -5 0 -6 9 -8 20 -5 11 3 20 1 20 -5 0 -6 9 -8 20 -5 11 3
20 1 20 -4 0 -5 5 -9 10 -9 6 0 10 51 10 133 l0 133 -87 22 c-49 12 -119 29
-158 37 -38 9 -77 19 -85 22 -8 4 -22 7 -30 8 -25 3 -204 45 -220 52 -8 4 -25
8 -36 9 -12 1 -78 16 -146 33 -69 17 -130 31 -136 31 -9 0 -12 -37 -12 -122z"/>
<path d="M1360 2430 c0 -133 1 -140 20 -140 19 0 20 7 20 140 0 133 -1 140
-20 140 -19 0 -20 -7 -20 -140z"/>
<path d="M707 2278 c-128 -38 -139 -43 -186 -87 -70 -66 -84 -99 -87 -206 -1
-49 0 -94 4 -100 15 -24 8 -42 -14 -39 -31 3 -205 43 -224 51 -8 4 -22 8 -30
9 -65 9 -150 30 -150 36 0 5 -4 8 -10 8 -6 0 -10 -33 -10 -80 0 -73 2 -80 19
-80 29 0 35 -13 43 -107 1 -7 7 -13 14 -13 7 0 14 -5 16 -11 2 -5 20 -11 41
-12 20 -1 37 -6 37 -11 0 -4 9 -6 20 -3 11 3 20 1 20 -5 0 -6 11 -7 26 -4 18
5 24 3 18 -5 -5 -9 0 -10 19 -5 14 3 27 2 29 -5 2 -5 20 -11 41 -12 20 -1 37
-6 37 -11 0 -4 9 -6 20 -3 11 3 20 1 20 -5 0 -6 11 -7 26 -4 18 5 24 3 18 -5
-5 -9 0 -10 19 -5 14 3 27 2 29 -5 2 -5 20 -11 41 -12 20 -1 37 -6 37 -11 0
-4 12 -5 26 -2 19 5 24 3 18 -5 -5 -9 -1 -10 14 -7 12 4 22 2 22 -4 0 -6 11
-7 25 -4 16 4 25 2 25 -5 0 -6 9 -9 20 -6 11 3 20 1 20 -5 0 -6 9 -8 20 -5 11
3 20 1 20 -5 0 -6 11 -7 26 -4 19 5 24 3 18 -5 -5 -9 -1 -10 14 -7 12 4 22 2
22 -4 0 -6 11 -7 25 -4 16 4 25 2 25 -5 0 -6 9 -9 20 -6 11 3 20 1 20 -5 0 -6
9 -8 20 -5 11 3 20 1 20 -5 0 -6 11 -7 26 -4 19 5 24 3 18 -5 -5 -9 -1 -10 14
-7 12 4 22 2 22 -4 0 -6 11 -7 25 -4 16 4 25 2 25 -5 0 -6 9 -9 20 -6 11 3 20
1 20 -5 0 -6 9 -8 20 -5 11 3 20 1 20 -5 0 -6 11 -7 26 -4 17 5 23 3 19 -4 -3
-5 0 -10 7 -10 19 1 57 24 57 35 0 9 4 23 16 58 7 19 7 23 5 32 -1 6 4 4 11
-2 36 -35 39 -19 39 198 l0 211 -25 -4 c-14 -3 -26 -1 -26 3 -2 10 -5 25 -9
37 -1 4 -2 10 -1 15 0 4 -4 7 -10 7 -5 0 -7 5 -4 10 3 6 1 10 -5 10 -6 0 -8 5
-5 10 3 6 1 10 -4 10 -6 0 -11 7 -11 15 0 8 -4 15 -10 15 -5 0 -10 6 -10 13 0
7 -9 18 -20 25 -12 7 -18 17 -15 22 3 4 -8 19 -25 32 -17 13 -43 34 -58 46
-37 33 -134 77 -212 97 -67 18 -203 25 -243 13z m183 -261 c0 -5 8 -6 17 -3 9
4 19 2 23 -4 4 -6 17 -12 28 -13 12 -1 22 -6 22 -11 0 -5 3 -7 6 -4 9 10 114
-67 114 -84 0 -4 10 -24 22 -44 12 -21 24 -47 26 -58 7 -33 7 -114 1 -120 -3
-3 -21 -2 -40 3 -19 5 -77 19 -129 31 -52 11 -102 24 -110 28 -8 3 -19 6 -25
7 -5 0 -39 7 -75 14 -68 15 -94 27 -84 42 3 5 0 9 -6 9 -6 0 -8 5 -5 10 3 6 1
10 -6 10 -6 0 -9 8 -6 20 3 11 1 23 -4 26 -12 7 -11 51 1 59 6 4 8 11 4 16 -8
14 37 53 67 57 13 2 25 7 27 10 3 10 132 9 132 -1z"/>
<path d="M540 1324 c-116 -31 -270 -121 -330 -192 -17 -20 -37 -44 -44 -52
-20 -22 -67 -100 -61 -100 3 0 -2 -11 -11 -25 -9 -14 -12 -25 -8 -25 5 0 3 -4
-3 -8 -7 -4 -14 -19 -15 -32 -4 -30 -15 -40 -45 -40 -23 0 -23 0 -23 -170 l0
-170 24 0 c13 0 29 -7 36 -15 7 -8 9 -15 5 -15 -4 0 -2 -7 5 -15 7 -8 9 -15 6
-15 -4 0 -1 -10 6 -23 7 -12 11 -25 10 -29 -1 -5 3 -8 10 -8 6 0 9 -3 5 -6 -3
-4 1 -13 9 -21 8 -8 12 -19 8 -24 -3 -5 2 -12 10 -15 9 -3 13 -10 10 -15 -3
-5 2 -12 10 -15 9 -3 16 -11 16 -17 0 -8 96 -105 143 -143 24 -20 183 -94 201
-94 9 0 15 -3 13 -7 -3 -5 20 -9 52 -11 31 -1 58 -7 59 -12 5 -13 122 -13 122
0 0 6 17 10 38 10 20 0 74 13 120 29 45 16 82 27 82 25 0 -2 9 5 20 16 11 11
27 20 35 20 8 0 15 5 15 10 0 6 5 10 10 10 6 0 18 6 27 13 18 14 113 110 128
129 34 43 54 76 48 82 -3 3 -2 6 4 6 6 0 15 12 21 28 6 15 14 36 18 47 4 11 8
23 8 27 1 3 4 9 8 13 4 4 4 13 1 21 -3 8 -1 14 5 14 5 0 12 -7 16 -15 3 -8 12
-15 21 -15 13 0 15 27 15 195 l0 195 -29 0 c-21 0 -31 6 -36 23 -4 12 -8 24
-9 27 -10 32 -73 144 -94 167 -62 70 -80 89 -106 111 -15 12 -32 22 -37 22 -5
0 -9 3 -9 8 0 12 -151 81 -215 97 -75 19 -251 19 -325 -1z m130 -373 c14 -10
30 -28 36 -40 11 -22 12 -22 25 -4 29 41 66 56 120 50 110 -13 154 -68 153
-189 -1 -63 2 -79 15 -82 9 -3 36 -10 59 -16 33 -8 42 -15 38 -26 -3 -9 -6
-21 -6 -27 -1 -32 -15 -37 -70 -22 -42 11 -56 12 -62 2 -14 -22 -9 -47 10 -47
9 0 34 -5 56 -11 37 -10 38 -12 33 -46 -4 -20 -8 -37 -10 -40 -3 -2 -31 3 -63
11 -32 8 -59 14 -60 13 -1 -1 -9 -34 -19 -74 -16 -70 -17 -72 -42 -62 -58 22
-63 28 -61 71 l3 41 -175 44 -175 44 -17 -21 c-10 -12 -18 -30 -18 -41 0 -26
-12 -30 -53 -18 -42 11 -41 7 -22 79 23 85 28 76 -62 100 -40 10 -41 11 -33
40 14 47 17 49 71 33 53 -16 68 -10 69 25 0 14 -4 16 -69 32 -42 11 -43 13
-37 43 4 17 10 35 14 38 4 4 32 1 62 -7 30 -8 56 -11 58 -7 14 43 66 113 94
127 40 20 101 14 138 -13z m-617 -138 c-4 -16 -7 -76 -8 -135 0 -60 -3 -108
-7 -108 -10 0 -10 179 -2 233 4 20 11 37 15 37 5 0 6 -12 2 -27z m1309 -18 c3
-13 1 -22 -3 -19 -9 5 -13 44 -5 44 2 0 6 -11 8 -25z m-5 -147 c-2 -18 -4 -4
-4 32 0 36 2 50 4 33 2 -18 2 -48 0 -65z m4 -94 c-5 -16 -10 -21 -10 -12 -1
18 10 51 15 45 2 -1 -1 -16 -5 -33z m-1301 -26 c0 -5 -4 -8 -10 -8 -5 0 -10
10 -10 23 0 18 2 19 10 7 5 -8 10 -18 10 -22z"/>
<path d="M561 823 c-16 -7 -61 -100 -61 -129 0 -17 11 -23 65 -36 41 -10 68
-12 71 -6 4 6 9 38 12 73 4 54 2 65 -17 84 -20 20 -42 25 -70 14z"/>
<path d="M771 774 c-20 -25 -51 -112 -51 -140 0 -7 19 -18 43 -24 23 -6 56
-15 74 -20 31 -8 31 -7 42 35 16 62 14 127 -5 153 -22 32 -76 30 -103 -4z"/>
</g>
</svg>
